<?xml version="1.0" encoding="UTF-8"?>
<svg width="150px" height="37px" viewBox="0 0 150 37" version="1.1" xmlns="http://www.w3.org/2000/svg" xmlns:xlink="http://www.w3.org/1999/xlink">
    <!-- Generator: Sketch 51 (57462) - http://www.bohemiancoding.com/sketch -->
    <title>GH_SMALL_domain_white_rgb</title>
    <desc>Created with Sketch.</desc>
    <defs>
        <polygon id="path-1" points="0 0 33.800692 0 33.800692 37 0 37"></polygon>
    </defs>
    <g id="Desktop" stroke="none" stroke-width="1" fill="none" fill-rule="evenodd">
        <g id="01_Goodhood_DESK" transform="translate(-200.000000, -20.000000)">
            <rect fill="none" x="0" y="0" width="1280" height="1740"></rect>
            <g id="GH_SMALL_domain_white_rgb" transform="translate(200.000000, 20.000000)">
                <g id="Group-3">
                    <g id="Fill-1-Clipped">
                        <g id="path-1"></g>
                        <path d="M30.865472,27.0164918 L28.657172,28.2862645 L28.657172,22.0591645 C28.657172,21.60541 28.410672,21.18361 28.013892,20.9572373 C27.617112,20.7301918 27.124112,20.7315373 26.729372,20.9572373 L22.598372,23.3104373 C21.803112,23.7628464 21.309092,24.6077918 21.309092,25.5156373 L21.309092,32.5133464 L18.002592,34.4154827 L18.002592,19.4913645 L31.596132,11.6725918 L31.596132,25.7598373 C31.596132,26.2758191 31.316652,26.7571555 30.865472,27.0164918 Z M12.491532,32.5133464 L12.491532,25.5156373 C12.491532,24.6077918 11.997512,23.7628464 11.203272,23.31111 L7.073292,20.9585827 C6.676512,20.7301918 6.183852,20.7315373 5.787072,20.9572373 C5.389952,21.18361 5.143792,21.60541 5.143792,22.0591645 L5.143792,28.2862645 L2.934812,27.0164918 C2.484312,26.7571555 2.204492,26.2758191 2.204492,25.7598373 L2.204492,11.6725918 L15.798372,19.4913645 L15.798372,34.4151464 L12.491532,32.5133464 Z M15.798372,2.58539182 L15.798372,16.9683009 L3.295552,9.77718273 L15.798372,2.58539182 Z M30.505412,9.77718273 L18.002592,16.9683009 L18.002592,2.58539182 L30.505412,9.77718273 Z M31.973532,8.09872818 L18.746512,0.490855455 C17.608192,-0.163708182 16.193452,-0.163708182 15.053772,0.490855455 L1.827772,8.09872818 C0.700332,8.74622818 -6.8e-05,9.95041 -6.8e-05,11.2410373 L-6.8e-05,25.7598373 C-6.8e-05,27.0504645 0.700332,28.2546464 1.827432,28.90181 L7.348012,32.0774191 L7.348012,23.6316645 L10.104052,25.20181 C10.216932,25.2657191 10.287312,25.3864736 10.287312,25.5156373 L10.287312,33.7679827 L15.054112,36.5100191 C15.623272,36.8369645 16.261792,37.00111 16.900312,37.0004373 C17.538492,37.0004373 18.177352,36.8369645 18.746852,36.5100191 L23.513312,33.7679827 L23.513312,25.5156373 C23.513312,25.3864736 23.583692,25.2657191 23.697592,25.2011373 L26.452612,23.6316645 L26.452612,32.0774191 L31.973192,28.90181 C33.100292,28.2546464 33.800692,27.0504645 33.800692,25.7598373 L33.800692,11.2410373 C33.800692,9.95108273 33.100632,8.74723727 31.973532,8.09872818 Z" id="Fill-1" fill="#FFFFFF" fill-rule="nonzero" mask="url(#mask-2)"></path>
                    </g>
                </g>
                <path d="M49.5101326,20.8959847 C49.5101326,18.6584608 48.3454008,18.0655354 47.0199217,18.0655354 C45.4337432,18.0655354 44.5702411,19.1366157 44.5702411,20.7430688 C44.5702411,22.5027725 45.4941952,23.7458413 47.1404822,23.7458413 C48.3454008,23.7458413 49.5101326,23.0766252 49.5101326,20.8959847 M44.4898674,27.5707457 C44.9717662,27.7430688 45.6144123,27.9344646 46.5582881,27.9344646 C48.1245449,27.9344646 49.450024,27.3030593 49.450024,25.5627629 L49.450024,24.8359943 C49.450024,24.6064532 49.4898674,24.3387667 49.4898674,24.3387667 L49.450024,24.3387667 C48.8877516,25.2565966 48.0039843,25.792304 46.6386618,25.792304 C43.6466305,25.792304 42,23.5357075 42,20.8387667 C42,18.1803059 43.5662568,16 46.6183966,16 C49.0079687,16 49.6506148,17.4916826 49.6506148,17.4916826 L49.6908017,17.4916826 C49.6908017,17.4916826 49.67088,17.3959847 49.67088,17.2430688 L49.67088,16.8796845 C49.67088,16.5163002 49.9518445,16.2295411 50.4941952,16.2295411 L51.1766848,16.2295411 C51.7190355,16.2295411 52,16.5163002 52,17.0326004 L52,25.3907744 C52,28.7378585 49.2291681,30 46.6987704,30 C45.5543038,30 44.4094937,29.7704589 43.706739,29.4833652 C43.1846534,29.2732314 43.0441712,28.9479924 43.2650271,28.4507648 L43.4257745,28.0110899 C43.6466305,27.532935 43.9478601,27.3990918 44.4898674,27.5707457" id="Fill-4" fill="#FFFFFF" fill-rule="nonzero"></path>
                <path d="M58.4901058,23.9775907 C60.1177852,23.9775907 61.4704394,22.7791501 61.4704394,20.9998362 C61.4704394,19.2395243 60.1177852,18.0224093 58.4901058,18.0224093 C56.8627618,18.0224093 55.5292252,19.2395243 55.5292252,20.9998362 C55.5292252,22.7791501 56.8627618,23.9775907 58.4901058,23.9775907 M58.4901058,16 C61.5294692,16 64,18.0787603 64,20.9998362 C64,23.9399142 61.5294692,26 58.4901058,26 C55.4507424,26 53,23.9399142 53,20.9998362 C53,18.0787603 55.4507424,16 58.4901058,16" id="Fill-6" fill="#FFFFFF" fill-rule="nonzero"></path>
                <path d="M70.4902738,23.9775907 C72.1179035,23.9775907 73.4705165,22.7791501 73.4705165,20.9998362 C73.4705165,19.2395243 72.1179035,18.0224093 70.4902738,18.0224093 C68.8626441,18.0224093 67.5294835,19.2395243 67.5294835,20.9998362 C67.5294835,22.7791501 68.8626441,23.9775907 70.4902738,23.9775907 M70.4902738,16 C73.5295445,16 76,18.0787603 76,20.9998362 C76,23.9399142 73.5295445,26 70.4902738,26 C67.4510031,26 65,23.9399142 65,20.9998362 C65,18.0787603 67.4510031,16 70.4902738,16" id="Fill-8" fill="#FFFFFF" fill-rule="nonzero"></path>
                <path d="M81.0393834,23.925172 C82.343937,23.925172 83.5690477,22.9946205 83.5690477,20.8034312 C83.5690477,19.2713967 82.7587303,17.7590385 81.0596667,17.7590385 C79.6956154,17.7590385 78.5296643,18.8643016 78.5296643,20.822429 C78.5296643,22.7035475 79.557351,23.925172 81.0393834,23.925172 M80.5654305,15.6451972 C82.7790136,15.6451972 83.5102262,17.0608704 83.5102262,17.0608704 L83.5494405,17.0608704 C83.5494405,17.0608704 83.5102262,16.8088107 83.5102262,16.4984007 L83.5102262,12.8141902 C83.5102262,12.2907337 83.786417,12 84.3202055,12 L85.1896826,12 C85.7234711,12 86,12.2907337 86,12.8141902 L86,24.9527479 C86,25.4958806 85.7234711,25.7672773 85.1896826,25.7672773 L84.45847,25.7672773 C83.9250194,25.7672773 83.6484906,25.5152176 83.6484906,25.0304352 L83.6484906,24.6426771 C83.6484906,24.4486285 83.6877049,24.2935931 83.6877049,24.2935931 L83.6484906,24.2935931 C83.6484906,24.2935931 82.7986207,26 80.4859876,26 C77.7588993,26 76,23.886498 76,20.822429 C76,17.6813512 77.8971637,15.6451972 80.5654305,15.6451972" id="Fill-10" fill="#FFFFFF" fill-rule="nonzero"></path>
                <path d="M88,12.8279533 C88,12.2956483 88.2806899,12 88.7857397,12 L89.5903627,12 C90.1142959,12 90.3764225,12.2956483 90.3764225,12.8279533 L90.3764225,16.8900991 C90.3764225,17.3830762 90.3200925,17.7377162 90.3200925,17.7377162 L90.3575391,17.7377162 C90.8251422,16.7717707 92.0227952,15.7068158 93.6694879,15.7068158 C95.7837838,15.7068158 97,16.8704352 97,19.5326499 L97,25.1717017 C97,25.7240156 96.7193101,26 96.2142603,26 L95.4096373,26 C94.8860242,26 94.6235775,25.7240156 94.6235775,25.1717017 L94.6235775,20.044946 C94.6235775,18.822335 94.3243243,17.9943817 93.1269915,17.9943817 C91.4614154,17.9943817 90.3764225,19.4139766 90.3764225,21.3268937 L90.3764225,25.1717017 C90.3764225,25.7240156 90.1142959,26 89.5903627,26 L88.7857397,26 C88.2806899,26 88,25.7240156 88,25.1717017 L88,12.8279533 Z" id="Fill-12" fill="#FFFFFF" fill-rule="nonzero"></path>
                <path d="M103.490106,23.9775907 C105.117785,23.9775907 106.470775,22.7791501 106.470775,20.9998362 C106.470775,19.2395243 105.117785,18.0224093 103.490106,18.0224093 C101.862426,18.0224093 100.529225,19.2395243 100.529225,20.9998362 C100.529225,22.7791501 101.862426,23.9775907 103.490106,23.9775907 M103.490106,16 C106.529469,16 109,18.0787603 109,20.9998362 C109,23.9399142 106.529469,26 103.490106,26 C100.450742,26 98,23.9399142 98,20.9998362 C98,18.0787603 100.450742,16 103.490106,16" id="Fill-14" fill="#FFFFFF" fill-rule="nonzero"></path>
                <path d="M115.489938,23.9775907 C117.117568,23.9775907 118.470516,22.7791501 118.470516,20.9998362 C118.470516,19.2395243 117.117568,18.0224093 115.489938,18.0224093 C113.862644,18.0224093 112.529484,19.2395243 112.529484,20.9998362 C112.529484,22.7791501 113.862644,23.9775907 115.489938,23.9775907 M115.489938,16 C118.529544,16 121,18.0787603 121,20.9998362 C121,23.9399142 118.529544,26 115.489938,26 C112.450668,26 110,23.9399142 110,20.9998362 C110,18.0787603 112.450668,16 115.489938,16" id="Fill-16" fill="#FFFFFF" fill-rule="nonzero"></path>
                <path d="M126.039551,23.925172 C127.343723,23.925172 128.568792,22.9946205 128.568792,20.8034312 C128.568792,19.2713967 127.75884,17.7590385 126.059158,17.7590385 C124.695491,17.7590385 123.529241,18.8643016 123.529241,20.822429 C123.529241,22.7035475 124.556893,23.925172 126.039551,23.925172 M125.565276,15.6451972 C127.778784,15.6451972 128.509634,17.0608704 128.509634,17.0608704 L128.549523,17.0608704 C128.549523,17.0608704 128.509634,16.8088107 128.509634,16.4984007 L128.509634,12.8141902 C128.509634,12.2907337 128.786492,12 129.319924,12 L130.189372,12 C130.722804,12 131,12.2907337 131,12.8141902 L131,24.9527479 C131,25.4958806 130.722804,25.7672773 130.189372,25.7672773 L129.458184,25.7672773 C128.924752,25.7672773 128.648232,25.5152176 128.648232,25.0304352 L128.648232,24.6426771 C128.648232,24.4486285 128.687783,24.2935931 128.687783,24.2935931 L128.648232,24.2935931 C128.648232,24.2935931 127.798053,26 125.485836,26 C122.75884,26 121,23.886498 121,20.822429 C121,17.6813512 122.8971,15.6451972 125.565276,15.6451972" id="Fill-18" fill="#FFFFFF" fill-rule="nonzero"></path>
                <path d="M133,24.640625 C133,24.2191311 133.218744,24 133.656605,24 L134.343767,24 C134.765605,24 135,24.2191311 135,24.640625 L135,25.3441311 C135,25.78125 134.765605,26 134.343767,26 L133.656605,26 C133.218744,26 133,25.78125 133,25.3441311 L133,24.640625 Z" id="Fill-20" fill="#FFFFFF" fill-rule="nonzero"></path>
                <path d="M140.181501,21.739895 C140.152587,20.8092259 139.531963,20.2586892 138.695171,20.2586892 C137.756835,20.2586892 137.09284,20.8485499 136.919355,21.739895 L140.181501,21.739895 Z M138.738542,19 C140.831039,19 142,20.3504453 142,22.1855675 C142,22.4739438 141.726003,22.7492121 141.364919,22.7492121 L136.876328,22.7492121 C136.99164,23.9551496 137.973348,24.5843343 139.084481,24.5843343 C139.762933,24.5843343 140.326072,24.34839 140.672354,24.1517698 C141.033438,23.9944736 141.292978,24.0337977 141.480576,24.335282 L141.653718,24.5974423 C141.826859,24.8989267 141.76903,25.161087 141.451662,25.3314912 C140.97561,25.6067595 140.109559,26 138.955055,26 C136.515588,26 135,24.4008221 135,22.5001599 C135,20.4418817 136.530045,19 138.738542,19 Z" id="Fill-22" fill="#FFFFFF" fill-rule="nonzero"></path>
                <path d="M143,19.5631921 C143,19.2014671 143.220602,19 143.617616,19 L144.249612,19 C144.661706,19 144.867579,19.2014671 144.867579,19.5631921 L144.867579,23.0496192 C144.867579,23.880998 145.102911,24.4445171 146.02951,24.4445171 C147.382234,24.4445171 148.132421,23.358361 148.132421,22.1377844 L148.132421,19.5631921 C148.132421,19.2014671 148.338294,19 148.750038,19 L149.382384,19 C149.779398,19 150,19.2014671 150,19.5631921 L150,25.2758959 C150,25.6510302 149.779398,25.8387609 149.382384,25.8387609 L148.808608,25.8387609 C148.411944,25.8387609 148.206072,25.6510302 148.206072,25.2758959 L148.206072,24.8732888 C148.206072,24.7123768 148.235182,24.5648741 148.235182,24.5648741 L148.206072,24.5648741 C147.852898,25.2624866 146.882108,26 145.603036,26 C143.9999,26 143,25.2624866 143,23.398589 L143,19.5631921 Z" id="Fill-24" fill="#FFFFFF" fill-rule="nonzero"></path>
            </g>
        </g>
    </g>
</svg>
